<?xml version="1.0" encoding="utf-8" standalone="no"?>
<!DOCTYPE svg PUBLIC "-//W3C//DTD SVG 1.1//EN"
  "http://www.w3.org/Graphics/SVG/1.1/DTD/svg11.dtd">
<svg xmlns:xlink="http://www.w3.org/1999/xlink" width="349.2pt" height="746.208pt" viewBox="0 0 349.2 746.208" xmlns="http://www.w3.org/2000/svg" version="1.1">
 <metadata>
  <rdf:RDF xmlns:dc="http://purl.org/dc/elements/1.1/" xmlns:cc="http://creativecommons.org/ns#" xmlns:rdf="http://www.w3.org/1999/02/22-rdf-syntax-ns#">
   <cc:Work>
    <dc:type rdf:resource="http://purl.org/dc/dcmitype/StillImage"/>
    <dc:date>2023-10-16T19:12:17.720088</dc:date>
    <dc:format>image/svg+xml</dc:format>
    <dc:creator>
     <cc:Agent>
      <dc:title>Matplotlib v3.7.2, https://matplotlib.org/</dc:title>
     </cc:Agent>
    </dc:creator>
   </cc:Work>
  </rdf:RDF>
 </metadata>
 <defs>
  <style type="text/css">*{stroke-linejoin: round; stroke-linecap: butt}</style>
 </defs>
 <g id="figure_1">
  <g id="patch_1">
   <path d="M 0 746.208 
L 349.2 746.208 
L 349.2 0 
L 0 0 
z
" style="fill: #ffffff"/>
  </g>
  <g id="axes_1">
   <g id="patch_2">
    <path d="M 174.6 82.102242 
Q 174.6 104.303399 174.6 125.386522 
" clip-path="url(#p5f6e048701)" style="fill: none; stroke: #000000; stroke-linecap: round"/>
    <path d="M 176.6 121.386522 
L 174.6 125.386522 
L 172.6 121.386522 
z
" clip-path="url(#p5f6e048701)" style="stroke: #000000; stroke-linecap: round"/>
   </g>
   <g id="patch_3">
    <path d="M 174.6 149.302242 
Q 174.6 171.503399 174.6 192.586522 
" clip-path="url(#p5f6e048701)" style="fill: none; stroke: #000000; stroke-linecap: round"/>
    <path d="M 176.6 188.586522 
L 174.6 192.586522 
L 172.6 188.586522 
z
" clip-path="url(#p5f6e048701)" style="stroke: #000000; stroke-linecap: round"/>
   </g>
   <g id="patch_4">
    <path d="M 174.6 216.502242 
Q 174.6 238.703399 174.6 259.786522 
" clip-path="url(#p5f6e048701)" style="fill: none; stroke: #000000; stroke-linecap: round"/>
    <path d="M 176.6 255.786522 
L 174.6 259.786522 
L 172.6 255.786522 
z
" clip-path="url(#p5f6e048701)" style="stroke: #000000; stroke-linecap: round"/>
   </g>
   <g id="patch_5">
    <path d="M 174.6 283.702242 
Q 174.6 305.903399 174.6 326.986522 
" clip-path="url(#p5f6e048701)" style="fill: none; stroke: #000000; stroke-linecap: round"/>
    <path d="M 176.6 322.986522 
L 174.6 326.986522 
L 172.6 322.986522 
z
" clip-path="url(#p5f6e048701)" style="stroke: #000000; stroke-linecap: round"/>
   </g>
   <g id="patch_6">
    <path d="M 174.6 350.902242 
Q 174.6 373.103399 174.6 394.186522 
" clip-path="url(#p5f6e048701)" style="fill: none; stroke: #000000; stroke-linecap: round"/>
    <path d="M 176.6 390.186522 
L 174.6 394.186522 
L 172.6 390.186522 
z
" clip-path="url(#p5f6e048701)" style="stroke: #000000; stroke-linecap: round"/>
   </g>
   <g id="patch_7">
    <path d="M 174.6 418.102242 
Q 174.6 440.303399 174.6 461.386522 
" clip-path="url(#p5f6e048701)" style="fill: none; stroke: #000000; stroke-linecap: round"/>
    <path d="M 176.6 457.386522 
L 174.6 461.386522 
L 172.6 457.386522 
z
" clip-path="url(#p5f6e048701)" style="stroke: #000000; stroke-linecap: round"/>
   </g>
   <g id="patch_8">
    <path d="M 174.6 485.302242 
Q 174.6 507.503399 174.6 528.586522 
" clip-path="url(#p5f6e048701)" style="fill: none; stroke: #000000; stroke-linecap: round"/>
    <path d="M 176.6 524.586522 
L 174.6 528.586522 
L 172.6 524.586522 
z
" clip-path="url(#p5f6e048701)" style="stroke: #000000; stroke-linecap: round"/>
   </g>
   <g id="patch_9">
    <path d="M 174.6 552.502242 
Q 174.6 574.703399 174.6 595.786522 
" clip-path="url(#p5f6e048701)" style="fill: none; stroke: #000000; stroke-linecap: round"/>
    <path d="M 176.6 591.786522 
L 174.6 595.786522 
L 172.6 591.786522 
z
" clip-path="url(#p5f6e048701)" style="stroke: #000000; stroke-linecap: round"/>
   </g>
   <g id="patch_10">
    <path d="M 174.6 619.702242 
Q 174.6 641.903399 174.6 662.986522 
" clip-path="url(#p5f6e048701)" style="fill: none; stroke: #000000; stroke-linecap: round"/>
    <path d="M 176.6 658.986522 
L 174.6 662.986522 
L 172.6 658.986522 
z
" clip-path="url(#p5f6e048701)" style="stroke: #000000; stroke-linecap: round"/>
   </g>
   <g id="PathCollection_1">
    <path d="M 174.6 82.105754 
C 177.623781 82.105754 180.524122 80.904393 182.662258 78.766258 
C 184.800393 76.628122 186.001754 73.727781 186.001754 70.704 
C 186.001754 67.680219 184.800393 64.779878 182.662258 62.641742 
C 180.524122 60.503607 177.623781 59.302246 174.6 59.302246 
C 171.576219 59.302246 168.675878 60.503607 166.537742 62.641742 
C 164.399607 64.779878 163.198246 67.680219 163.198246 70.704 
C 163.198246 73.727781 164.399607 76.628122 166.537742 78.766258 
C 168.675878 80.904393 171.576219 82.105754 174.6 82.105754 
z
" clip-path="url(#p5f6e048701)" style="fill: #ffffff; stroke: #000000"/>
    <path d="M 174.6 149.305754 
C 177.623781 149.305754 180.524122 148.104393 182.662258 145.966258 
C 184.800393 143.828122 186.001754 140.927781 186.001754 137.904 
C 186.001754 134.880219 184.800393 131.979878 182.662258 129.841742 
C 180.524122 127.703607 177.623781 126.502246 174.6 126.502246 
C 171.576219 126.502246 168.675878 127.703607 166.537742 129.841742 
C 164.399607 131.979878 163.198246 134.880219 163.198246 137.904 
C 163.198246 140.927781 164.399607 143.828122 166.537742 145.966258 
C 168.675878 148.104393 171.576219 149.305754 174.6 149.305754 
z
" clip-path="url(#p5f6e048701)" style="fill: #ffffff; stroke: #000000"/>
    <path d="M 174.6 216.505754 
C 177.623781 216.505754 180.524122 215.304393 182.662258 213.166258 
C 184.800393 211.028122 186.001754 208.127781 186.001754 205.104 
C 186.001754 202.080219 184.800393 199.179878 182.662258 197.041742 
C 180.524122 194.903607 177.623781 193.702246 174.6 193.702246 
C 171.576219 193.702246 168.675878 194.903607 166.537742 197.041742 
C 164.399607 199.179878 163.198246 202.080219 163.198246 205.104 
C 163.198246 208.127781 164.399607 211.028122 166.537742 213.166258 
C 168.675878 215.304393 171.576219 216.505754 174.6 216.505754 
z
" clip-path="url(#p5f6e048701)" style="fill: #ffffff; stroke: #000000"/>
    <path d="M 174.6 283.705754 
C 177.623781 283.705754 180.524122 282.504393 182.662258 280.366258 
C 184.800393 278.228122 186.001754 275.327781 186.001754 272.304 
C 186.001754 269.280219 184.800393 266.379878 182.662258 264.241742 
C 180.524122 262.103607 177.623781 260.902246 174.6 260.902246 
C 171.576219 260.902246 168.675878 262.103607 166.537742 264.241742 
C 164.399607 266.379878 163.198246 269.280219 163.198246 272.304 
C 163.198246 275.327781 164.399607 278.228122 166.537742 280.366258 
C 168.675878 282.504393 171.576219 283.705754 174.6 283.705754 
z
" clip-path="url(#p5f6e048701)" style="fill: #ffffff; stroke: #000000"/>
    <path d="M 174.6 350.905754 
C 177.623781 350.905754 180.524122 349.704393 182.662258 347.566258 
C 184.800393 345.428122 186.001754 342.527781 186.001754 339.504 
C 186.001754 336.480219 184.800393 333.579878 182.662258 331.441742 
C 180.524122 329.303607 177.623781 328.102246 174.6 328.102246 
C 171.576219 328.102246 168.675878 329.303607 166.537742 331.441742 
C 164.399607 333.579878 163.198246 336.480219 163.198246 339.504 
C 163.198246 342.527781 164.399607 345.428122 166.537742 347.566258 
C 168.675878 349.704393 171.576219 350.905754 174.6 350.905754 
z
" clip-path="url(#p5f6e048701)" style="fill: #ffffff; stroke: #000000"/>
    <path d="M 174.6 418.105754 
C 177.623781 418.105754 180.524122 416.904393 182.662258 414.766258 
C 184.800393 412.628122 186.001754 409.727781 186.001754 406.704 
C 186.001754 403.680219 184.800393 400.779878 182.662258 398.641742 
C 180.524122 396.503607 177.623781 395.302246 174.6 395.302246 
C 171.576219 395.302246 168.675878 396.503607 166.537742 398.641742 
C 164.399607 400.779878 163.198246 403.680219 163.198246 406.704 
C 163.198246 409.727781 164.399607 412.628122 166.537742 414.766258 
C 168.675878 416.904393 171.576219 418.105754 174.6 418.105754 
z
" clip-path="url(#p5f6e048701)" style="fill: #ffffff; stroke: #000000"/>
    <path d="M 174.6 485.305754 
C 177.623781 485.305754 180.524122 484.104393 182.662258 481.966258 
C 184.800393 479.828122 186.001754 476.927781 186.001754 473.904 
C 186.001754 470.880219 184.800393 467.979878 182.662258 465.841742 
C 180.524122 463.703607 177.623781 462.502246 174.6 462.502246 
C 171.576219 462.502246 168.675878 463.703607 166.537742 465.841742 
C 164.399607 467.979878 163.198246 470.880219 163.198246 473.904 
C 163.198246 476.927781 164.399607 479.828122 166.537742 481.966258 
C 168.675878 484.104393 171.576219 485.305754 174.6 485.305754 
z
" clip-path="url(#p5f6e048701)" style="fill: #ffffff; stroke: #000000"/>
    <path d="M 174.6 552.505754 
C 177.623781 552.505754 180.524122 551.304393 182.662258 549.166258 
C 184.800393 547.028122 186.001754 544.127781 186.001754 541.104 
C 186.001754 538.080219 184.800393 535.179878 182.662258 533.041742 
C 180.524122 530.903607 177.623781 529.702246 174.6 529.702246 
C 171.576219 529.702246 168.675878 530.903607 166.537742 533.041742 
C 164.399607 535.179878 163.198246 538.080219 163.198246 541.104 
C 163.198246 544.127781 164.399607 547.028122 166.537742 549.166258 
C 168.675878 551.304393 171.576219 552.505754 174.6 552.505754 
z
" clip-path="url(#p5f6e048701)" style="fill: #ffffff; stroke: #000000"/>
    <path d="M 174.6 619.705754 
C 177.623781 619.705754 180.524122 618.504393 182.662258 616.366258 
C 184.800393 614.228122 186.001754 611.327781 186.001754 608.304 
C 186.001754 605.280219 184.800393 602.379878 182.662258 600.241742 
C 180.524122 598.103607 177.623781 596.902246 174.6 596.902246 
C 171.576219 596.902246 168.675878 598.103607 166.537742 600.241742 
C 164.399607 602.379878 163.198246 605.280219 163.198246 608.304 
C 163.198246 611.327781 164.399607 614.228122 166.537742 616.366258 
C 168.675878 618.504393 171.576219 619.705754 174.6 619.705754 
z
" clip-path="url(#p5f6e048701)" style="fill: #ffffff; stroke: #000000"/>
    <path d="M 174.6 686.905754 
C 177.623781 686.905754 180.524122 685.704393 182.662258 683.566258 
C 184.800393 681.428122 186.001754 678.527781 186.001754 675.504 
C 186.001754 672.480219 184.800393 669.579878 182.662258 667.441742 
C 180.524122 665.303607 177.623781 664.102246 174.6 664.102246 
C 171.576219 664.102246 168.675878 665.303607 166.537742 667.441742 
C 164.399607 669.579878 163.198246 672.480219 163.198246 675.504 
C 163.198246 678.527781 164.399607 681.428122 166.537742 683.566258 
C 168.675878 685.704393 171.576219 686.905754 174.6 686.905754 
z
" clip-path="url(#p5f6e048701)" style="fill: #ffffff; stroke: #000000"/>
   </g>
   <g id="text_1">
    <!-- R -->
    <g transform="translate(167.821024 75.572903) scale(0.2 -0.2)">
     <defs>
      <path id="LMRoman17-Regular-52" d="M 4365 503 
C 4365 540 4365 585 4307 585 
C 4256 585 4250 547 4250 522 
C 4218 112 4032 -26 3834 -26 
C 3482 -26 3443 377 3405 768 
C 3386 903 3373 998 3360 1139 
C 3322 1459 3270 1927 2509 2157 
C 3117 2277 3629 2684 3629 3191 
C 3629 3787 2950 4326 2054 4326 
L 333 4326 
L 333 4160 
C 774 4160 845 4160 845 3873 
L 845 415 
C 845 128 774 128 333 128 
L 333 -26 
C 518 -26 851 -26 1050 -26 
C 1248 -26 1581 -26 1766 -26 
L 1766 128 
C 1325 128 1254 128 1254 417 
L 1254 2112 
L 2003 2112 
C 2368 2112 2573 1964 2662 1881 
C 2918 1632 2918 1459 2918 1024 
C 2918 595 2918 377 3110 160 
C 3354 -102 3680 -128 3821 -128 
C 4294 -128 4365 396 4365 503 
z
M 3142 3190 
C 3142 2372 2464 2214 1984 2214 
L 1254 2214 
L 1254 3913 
C 1254 4129 1267 4160 1523 4160 
L 1990 4160 
C 2522 4160 3142 3977 3142 3190 
z
" transform="scale(0.015625)"/>
     </defs>
     <use xlink:href="#LMRoman17-Regular-52" transform="scale(0.996264)"/>
    </g>
   </g>
   <g id="text_2">
    <!-- 2 -->
    <g transform="translate(170.030907 142.772903) scale(0.2 -0.2)">
     <defs>
      <path id="LMRoman17-Regular-32" d="M 2669 989 
L 2554 989 
C 2490 536 2438 459 2413 420 
C 2381 369 1920 369 1830 369 
L 602 369 
L 1824 1597 
C 2214 1967 2669 2402 2669 3035 
C 2669 3790 2067 4224 1395 4224 
C 691 4224 262 3604 262 3030 
C 262 2780 448 2748 525 2748 
C 589 2748 781 2787 781 3010 
C 781 3207 614 3264 525 3264 
C 486 3264 448 3258 422 3245 
C 544 3790 915 4058 1306 4058 
C 1862 4058 2227 3617 2227 3035 
C 2227 2479 1901 2000 1536 1584 
L 262 146 
L 262 0 
L 2515 0 
L 2669 989 
z
" transform="scale(0.015625)"/>
     </defs>
     <use xlink:href="#LMRoman17-Regular-32" transform="scale(0.996264)"/>
    </g>
   </g>
   <g id="text_3">
    <!-- 1 -->
    <g transform="translate(170.030907 209.972903) scale(0.2 -0.2)">
     <defs>
      <path id="LMRoman17-Regular-31" d="M 2458 0 
L 2458 160 
L 2266 160 
C 1715 160 1702 230 1702 458 
L 1702 4058 
C 1702 4192 1696 4192 1606 4192 
C 1357 3916 979 3827 621 3827 
C 602 3827 570 3827 563 3808 
C 557 3795 557 3782 557 3648 
C 755 3648 1088 3686 1344 3839 
L 1344 461 
C 1344 236 1331 160 781 160 
L 589 160 
L 589 0 
L 1523 0 
L 2458 0 
z
" transform="scale(0.015625)"/>
     </defs>
     <use xlink:href="#LMRoman17-Regular-31" transform="scale(0.996264)"/>
    </g>
   </g>
   <g id="text_4">
    <!-- 5 -->
    <g transform="translate(170.030907 277.172903) scale(0.2 -0.2)">
     <defs>
      <path id="LMRoman17-Regular-35" d="M 2669 1264 
C 2669 2030 2170 2624 1549 2624 
C 1222 2624 947 2503 730 2274 
L 730 3692 
C 794 3666 1056 3584 1325 3584 
C 1920 3584 2246 3911 2432 4100 
C 2432 4157 2432 4192 2394 4192 
C 2394 4192 2374 4192 2323 4163 
C 2099 4058 1837 3973 1517 3973 
C 1325 3973 1037 3999 723 4139 
C 653 4171 634 4171 634 4171 
C 602 4171 595 4164 595 4037 
L 595 2203 
C 595 2089 595 2057 659 2057 
C 691 2057 704 2070 736 2114 
C 941 2401 1222 2522 1542 2522 
C 1766 2522 2246 2382 2246 1289 
C 2246 1085 2246 715 2054 421 
C 1894 159 1645 25 1370 25 
C 947 25 518 320 403 814 
C 429 807 480 795 506 795 
C 589 795 749 840 749 1038 
C 749 1210 627 1280 506 1280 
C 358 1280 262 1190 262 1011 
C 262 454 704 -128 1382 -128 
C 2042 -128 2669 440 2669 1264 
z
" transform="scale(0.015625)"/>
     </defs>
     <use xlink:href="#LMRoman17-Regular-35" transform="scale(0.996264)"/>
    </g>
   </g>
   <g id="text_5">
    <!-- 3 -->
    <g transform="translate(170.030907 344.372903) scale(0.2 -0.2)">
     <defs>
      <path id="LMRoman17-Regular-33" d="M 2720 1085 
C 2720 1707 2208 2157 1600 2227 
C 2086 2328 2554 2756 2554 3329 
C 2554 3820 2048 4179 1472 4179 
C 890 4179 378 3829 378 3329 
C 378 3110 544 3072 627 3072 
C 762 3072 877 3155 877 3321 
C 877 3486 762 3569 627 3569 
C 602 3569 570 3569 544 3557 
C 730 3959 1235 4032 1459 4032 
C 1683 4032 2106 3925 2106 3320 
C 2106 3143 2080 2828 1862 2550 
C 1670 2304 1453 2304 1242 2284 
C 1210 2284 1062 2269 1037 2269 
C 992 2263 966 2257 966 2208 
C 966 2163 973 2157 1101 2157 
L 1414 2157 
C 1984 2157 2234 1662 2234 1090 
C 2234 320 1824 25 1453 25 
C 1114 25 563 194 390 693 
C 422 680 454 680 486 680 
C 640 680 755 782 755 948 
C 755 1133 614 1216 486 1216 
C 378 1216 211 1165 211 926 
C 211 335 787 -128 1466 -128 
C 2176 -128 2720 430 2720 1085 
z
" transform="scale(0.015625)"/>
     </defs>
     <use xlink:href="#LMRoman17-Regular-33" transform="scale(0.996264)"/>
    </g>
   </g>
   <g id="text_6">
    <!-- 4 -->
    <g transform="translate(170.030907 411.572903) scale(0.2 -0.2)">
     <defs>
      <path id="LMRoman17-Regular-34" d="M 2803 1114 
L 2803 1280 
L 2150 1280 
L 2150 4154 
C 2150 4288 2144 4288 2029 4288 
L 128 1280 
L 128 1114 
L 1779 1114 
L 1779 487 
C 1779 255 1766 192 1318 192 
L 1197 192 
L 1197 32 
C 1402 32 1747 32 1965 32 
C 2182 32 2528 32 2733 32 
L 2733 192 
L 2611 192 
C 2163 192 2150 255 2150 487 
L 2150 1114 
L 2803 1114 
z
M 1798 1280 
L 256 1280 
L 1798 3734 
L 1798 1280 
z
" transform="scale(0.015625)"/>
     </defs>
     <use xlink:href="#LMRoman17-Regular-34" transform="scale(0.996264)"/>
    </g>
   </g>
   <g id="text_7">
    <!-- 7 -->
    <g transform="translate(170.030907 478.772903) scale(0.2 -0.2)">
     <defs>
      <path id="LMRoman17-Regular-37" d="M 2886 3941 
L 2886 4081 
L 1382 4081 
C 634 4081 621 4165 595 4288 
L 480 4288 
L 294 3094 
L 410 3094 
C 429 3215 474 3540 550 3661 
C 589 3712 1062 3712 1171 3712 
L 2579 3712 
L 1869 2661 
C 1395 1954 1069 999 1069 165 
C 1069 89 1069 -128 1299 -128 
C 1530 -128 1530 89 1530 171 
L 1530 465 
C 1530 1508 1709 2196 2003 2636 
L 2886 3941 
z
" transform="scale(0.015625)"/>
     </defs>
     <use xlink:href="#LMRoman17-Regular-37" transform="scale(0.996264)"/>
    </g>
   </g>
   <g id="text_8">
    <!-- 6 -->
    <g transform="translate(170.030907 545.972903) scale(0.2 -0.2)">
     <defs>
      <path id="LMRoman17-Regular-36" d="M 2688 1283 
C 2688 2081 2170 2662 1517 2662 
C 1126 2662 838 2407 678 1960 
L 678 2176 
C 678 3690 1395 4032 1811 4032 
C 1946 4032 2272 4009 2400 3776 
C 2298 3776 2106 3776 2106 3553 
C 2106 3381 2246 3323 2336 3323 
C 2394 3323 2566 3348 2566 3560 
C 2566 3954 2246 4179 1805 4179 
C 1043 4179 243 3390 243 1984 
C 243 253 966 -128 1478 -128 
C 2099 -128 2688 427 2688 1283 
z
M 2253 1289 
C 2253 944 2253 690 2118 434 
C 1978 171 1773 25 1478 25 
C 691 25 691 1200 691 1436 
C 691 1896 909 2560 1504 2560 
C 1613 2560 1926 2560 2138 2120 
C 2253 1870 2253 1609 2253 1289 
z
" transform="scale(0.015625)"/>
     </defs>
     <use xlink:href="#LMRoman17-Regular-36" transform="scale(0.996264)"/>
    </g>
   </g>
   <g id="text_9">
    <!-- 0 -->
    <g transform="translate(170.030907 613.172903) scale(0.2 -0.2)">
     <defs>
      <path id="LMRoman17-Regular-30" d="M 2688 2025 
C 2688 2416 2682 3080 2413 3591 
C 2176 4039 1798 4198 1466 4198 
C 1158 4198 768 4058 525 3597 
C 269 3118 243 2524 243 2025 
C 243 1661 250 1106 448 619 
C 723 -39 1216 -128 1466 -128 
C 1760 -128 2208 -7 2470 600 
C 2662 1042 2688 1559 2688 2025 
z
M 2278 2096 
C 2278 1680 2278 1169 2202 792 
C 2067 95 1690 -26 1466 -26 
C 1056 -26 813 325 723 812 
C 653 1188 653 1738 653 2096 
C 653 2588 653 2997 736 3387 
C 858 3929 1216 4096 1466 4096 
C 1728 4096 2067 3923 2189 3400 
C 2272 3036 2278 2607 2278 2096 
z
" transform="scale(0.015625)"/>
     </defs>
     <use xlink:href="#LMRoman17-Regular-30" transform="scale(0.996264)"/>
    </g>
   </g>
   <g id="text_10">
    <!-- 8 -->
    <g transform="translate(170.030907 680.372903) scale(0.2 -0.2)">
     <defs>
      <path id="LMRoman17-Regular-38" d="M 2720 1011 
C 2720 1590 2330 1858 2074 2029 
C 1984 2092 1933 2124 1741 2264 
C 2144 2468 2554 2773 2554 3263 
C 2554 3842 1990 4179 1472 4179 
C 890 4179 378 3759 378 3180 
C 378 3021 416 2747 666 2505 
C 730 2442 998 2251 1171 2130 
C 883 1983 211 1634 211 934 
C 211 279 838 -128 1459 -128 
C 2144 -128 2720 362 2720 1011 
z
M 2336 3262 
C 2336 2669 1670 2331 1638 2331 
C 1638 2331 1626 2331 1574 2370 
L 902 2822 
C 851 2854 595 3051 595 3351 
C 595 3739 998 4032 1459 4032 
C 1965 4032 2336 3676 2336 3262 
z
M 2483 851 
C 2483 381 2010 25 1472 25 
C 890 25 448 438 448 940 
C 448 1443 838 1862 1280 2060 
L 2080 1519 
C 2176 1449 2483 1240 2483 851 
z
" transform="scale(0.015625)"/>
     </defs>
     <use xlink:href="#LMRoman17-Regular-38" transform="scale(0.996264)"/>
    </g>
   </g>
  </g>
 </g>
 <defs>
  <clipPath id="p5f6e048701">
   <rect x="7.2" y="7.2" width="334.8" height="731.808"/>
  </clipPath>
 </defs>
</svg>
