<?xml version="1.0" encoding="utf-8" standalone="no"?>
<!DOCTYPE svg PUBLIC "-//W3C//DTD SVG 1.1//EN"
  "http://www.w3.org/Graphics/SVG/1.1/DTD/svg11.dtd">
<svg xmlns:xlink="http://www.w3.org/1999/xlink" width="349.2pt" height="313.776pt" viewBox="0 0 349.2 313.776" xmlns="http://www.w3.org/2000/svg" version="1.1">
 <metadata>
  <rdf:RDF xmlns:dc="http://purl.org/dc/elements/1.1/" xmlns:cc="http://creativecommons.org/ns#" xmlns:rdf="http://www.w3.org/1999/02/22-rdf-syntax-ns#">
   <cc:Work>
    <dc:type rdf:resource="http://purl.org/dc/dcmitype/StillImage"/>
    <dc:date>2023-10-16T19:12:18.535581</dc:date>
    <dc:format>image/svg+xml</dc:format>
    <dc:creator>
     <cc:Agent>
      <dc:title>Matplotlib v3.7.2, https://matplotlib.org/</dc:title>
     </cc:Agent>
    </dc:creator>
   </cc:Work>
  </rdf:RDF>
 </metadata>
 <defs>
  <style type="text/css">*{stroke-linejoin: round; stroke-linecap: butt}</style>
 </defs>
 <g id="figure_1">
  <g id="patch_1">
   <path d="M 0 313.776 
L 349.2 313.776 
L 349.2 0 
L 0 0 
z
" style="fill: #ffffff"/>
  </g>
  <g id="axes_1">
   <g id="patch_2">
    <path d="M 151.234821 42.831097 
Q 131.366305 74.415628 112.093106 105.053799 
" clip-path="url(#p45b2288093)" style="fill: none; stroke: #000000; stroke-linecap: round"/>
    <path d="M 115.915875 102.73293 
L 112.093106 105.053799 
L 112.530072 100.603062 
z
" clip-path="url(#p45b2288093)" style="stroke: #000000; stroke-linecap: round"/>
   </g>
   <g id="patch_3">
    <path d="M 163.378402 42.831097 
Q 183.246918 74.415628 202.520118 105.053799 
" clip-path="url(#p45b2288093)" style="fill: none; stroke: #000000; stroke-linecap: round"/>
    <path d="M 202.083151 100.603062 
L 202.520118 105.053799 
L 198.697348 102.73293 
z
" clip-path="url(#p45b2288093)" style="stroke: #000000; stroke-linecap: round"/>
   </g>
   <g id="patch_4">
    <path d="M 98.099133 124.387685 
Q 70.840395 156.887135 44.300137 188.529972 
" clip-path="url(#p45b2288093)" style="fill: none; stroke: #000000; stroke-linecap: round"/>
    <path d="M 48.403005 186.750514 
L 44.300137 188.529972 
L 45.338292 184.180002 
z
" clip-path="url(#p45b2288093)" style="stroke: #000000; stroke-linecap: round"/>
   </g>
   <g id="patch_5">
    <path d="M 105.426446 127.055565 
Q 105.426446 156.888064 105.426446 185.602529 
" clip-path="url(#p45b2288093)" style="fill: none; stroke: #000000; stroke-linecap: round"/>
    <path d="M 107.426446 181.602529 
L 105.426446 185.602529 
L 103.426446 181.602529 
z
" clip-path="url(#p45b2288093)" style="stroke: #000000; stroke-linecap: round"/>
   </g>
   <g id="patch_6">
    <path d="M 204.777934 126.164594 
Q 191.892818 156.88936 179.440091 186.583088 
" clip-path="url(#p45b2288093)" style="fill: none; stroke: #000000; stroke-linecap: round"/>
    <path d="M 182.83143 183.667814 
L 179.440091 186.583088 
L 179.142675 182.120853 
z
" clip-path="url(#p45b2288093)" style="stroke: #000000; stroke-linecap: round"/>
   </g>
   <g id="patch_7">
    <path d="M 213.59562 126.164594 
Q 226.480736 156.88936 238.933462 186.583088 
" clip-path="url(#p45b2288093)" style="fill: none; stroke: #000000; stroke-linecap: round"/>
    <path d="M 239.230878 182.120853 
L 238.933462 186.583088 
L 235.542124 183.667814 
z
" clip-path="url(#p45b2288093)" style="stroke: #000000; stroke-linecap: round"/>
   </g>
   <g id="patch_8">
    <path d="M 218.11318 122.746687 
Q 261.065992 156.887244 303.143566 190.33213 
" clip-path="url(#p45b2288093)" style="fill: none; stroke: #000000; stroke-linecap: round"/>
    <path d="M 301.256679 186.277545 
L 303.143566 190.33213 
L 298.767766 189.408888 
z
" clip-path="url(#p45b2288093)" style="stroke: #000000; stroke-linecap: round"/>
   </g>
   <g id="patch_9">
    <path d="M 174.6 209.528292 
Q 174.6 239.360791 174.6 268.075256 
" clip-path="url(#p45b2288093)" style="fill: none; stroke: #000000; stroke-linecap: round"/>
    <path d="M 176.6 264.075256 
L 174.6 268.075256 
L 172.6 264.075256 
z
" clip-path="url(#p45b2288093)" style="stroke: #000000; stroke-linecap: round"/>
   </g>
   <g id="patch_10">
    <path d="M 312.947107 209.528292 
Q 312.947107 239.360791 312.947107 268.075256 
" clip-path="url(#p45b2288093)" style="fill: none; stroke: #000000; stroke-linecap: round"/>
    <path d="M 314.947107 264.075256 
L 312.947107 268.075256 
L 310.947107 264.075256 
z
" clip-path="url(#p45b2288093)" style="stroke: #000000; stroke-linecap: round"/>
   </g>
   <g id="PathCollection_1">
    <path d="M 157.306612 44.580663 
C 160.330392 44.580663 163.230734 43.379303 165.368869 41.241167 
C 167.507005 39.103031 168.708366 36.20269 168.708366 33.178909 
C 168.708366 30.155129 167.507005 27.254787 165.368869 25.116651 
C 163.230734 22.978516 160.330392 21.777155 157.306612 21.777155 
C 154.282831 21.777155 151.38249 22.978516 149.244354 25.116651 
C 147.106218 27.254787 145.904857 30.155129 145.904857 33.178909 
C 145.904857 36.20269 147.106218 39.103031 149.244354 41.241167 
C 151.38249 43.379303 154.282831 44.580663 157.306612 44.580663 
z
" clip-path="url(#p45b2288093)" style="fill: #ffffff; stroke: #000000"/>
    <path d="M 105.426446 127.053391 
C 108.450227 127.053391 111.350568 125.85203 113.488704 123.713894 
C 115.62684 121.575758 116.828201 118.675417 116.828201 115.651636 
C 116.828201 112.627856 115.62684 109.727514 113.488704 107.589379 
C 111.350568 105.451243 108.450227 104.249882 105.426446 104.249882 
C 102.402666 104.249882 99.502324 105.451243 97.364189 107.589379 
C 95.226053 109.727514 94.024692 112.627856 94.024692 115.651636 
C 94.024692 118.675417 95.226053 121.575758 97.364189 123.713894 
C 99.502324 125.85203 102.402666 127.053391 105.426446 127.053391 
z
" clip-path="url(#p45b2288093)" style="fill: #ffffff; stroke: #000000"/>
    <path d="M 36.252893 209.526118 
C 39.276673 209.526118 42.177015 208.324757 44.31515 206.186621 
C 46.453286 204.048486 47.654647 201.148144 47.654647 198.124364 
C 47.654647 195.100583 46.453286 192.200242 44.31515 190.062106 
C 42.177015 187.92397 39.276673 186.722609 36.252893 186.722609 
C 33.229112 186.722609 30.328771 187.92397 28.190635 190.062106 
C 26.052499 192.200242 24.851138 195.100583 24.851138 198.124364 
C 24.851138 201.148144 26.052499 204.048486 28.190635 206.186621 
C 30.328771 208.324757 33.229112 209.526118 36.252893 209.526118 
z
" clip-path="url(#p45b2288093)" style="fill: #ffffff; stroke: #000000"/>
    <path d="M 105.426446 209.526118 
C 108.450227 209.526118 111.350568 208.324757 113.488704 206.186621 
C 115.62684 204.048486 116.828201 201.148144 116.828201 198.124364 
C 116.828201 195.100583 115.62684 192.200242 113.488704 190.062106 
C 111.350568 187.92397 108.450227 186.722609 105.426446 186.722609 
C 102.402666 186.722609 99.502324 187.92397 97.364189 190.062106 
C 95.226053 192.200242 94.024692 195.100583 94.024692 198.124364 
C 94.024692 201.148144 95.226053 204.048486 97.364189 206.186621 
C 99.502324 208.324757 102.402666 209.526118 105.426446 209.526118 
z
" clip-path="url(#p45b2288093)" style="fill: #ffffff; stroke: #000000"/>
    <path d="M 209.186777 127.053391 
C 212.210557 127.053391 215.110899 125.85203 217.249035 123.713894 
C 219.38717 121.575758 220.588531 118.675417 220.588531 115.651636 
C 220.588531 112.627856 219.38717 109.727514 217.249035 107.589379 
C 215.110899 105.451243 212.210557 104.249882 209.186777 104.249882 
C 206.162996 104.249882 203.262655 105.451243 201.124519 107.589379 
C 198.986383 109.727514 197.785023 112.627856 197.785023 115.651636 
C 197.785023 118.675417 198.986383 121.575758 201.124519 123.713894 
C 203.262655 125.85203 206.162996 127.053391 209.186777 127.053391 
z
" clip-path="url(#p45b2288093)" style="fill: #ffffff; stroke: #000000"/>
    <path d="M 174.6 209.526118 
C 177.623781 209.526118 180.524122 208.324757 182.662258 206.186621 
C 184.800393 204.048486 186.001754 201.148144 186.001754 198.124364 
C 186.001754 195.100583 184.800393 192.200242 182.662258 190.062106 
C 180.524122 187.92397 177.623781 186.722609 174.6 186.722609 
C 171.576219 186.722609 168.675878 187.92397 166.537742 190.062106 
C 164.399607 192.200242 163.198246 195.100583 163.198246 198.124364 
C 163.198246 201.148144 164.399607 204.048486 166.537742 206.186621 
C 168.675878 208.324757 171.576219 209.526118 174.6 209.526118 
z
" clip-path="url(#p45b2288093)" style="fill: #ffffff; stroke: #000000"/>
    <path d="M 174.6 291.998845 
C 177.623781 291.998845 180.524122 290.797484 182.662258 288.659349 
C 184.800393 286.521213 186.001754 283.620871 186.001754 280.597091 
C 186.001754 277.57331 184.800393 274.672969 182.662258 272.534833 
C 180.524122 270.396697 177.623781 269.195337 174.6 269.195337 
C 171.576219 269.195337 168.675878 270.396697 166.537742 272.534833 
C 164.399607 274.672969 163.198246 277.57331 163.198246 280.597091 
C 163.198246 283.620871 164.399607 286.521213 166.537742 288.659349 
C 168.675878 290.797484 171.576219 291.998845 174.6 291.998845 
z
" clip-path="url(#p45b2288093)" style="fill: #ffffff; stroke: #000000"/>
    <path d="M 243.773554 209.526118 
C 246.797334 209.526118 249.697676 208.324757 251.835811 206.186621 
C 253.973947 204.048486 255.175308 201.148144 255.175308 198.124364 
C 255.175308 195.100583 253.973947 192.200242 251.835811 190.062106 
C 249.697676 187.92397 246.797334 186.722609 243.773554 186.722609 
C 240.749773 186.722609 237.849432 187.92397 235.711296 190.062106 
C 233.57316 192.200242 232.371799 195.100583 232.371799 198.124364 
C 232.371799 201.148144 233.57316 204.048486 235.711296 206.186621 
C 237.849432 208.324757 240.749773 209.526118 243.773554 209.526118 
z
" clip-path="url(#p45b2288093)" style="fill: #ffffff; stroke: #000000"/>
    <path d="M 312.947107 209.526118 
C 315.970888 209.526118 318.871229 208.324757 321.009365 206.186621 
C 323.147501 204.048486 324.348862 201.148144 324.348862 198.124364 
C 324.348862 195.100583 323.147501 192.200242 321.009365 190.062106 
C 318.871229 187.92397 315.970888 186.722609 312.947107 186.722609 
C 309.923327 186.722609 307.022985 187.92397 304.88485 190.062106 
C 302.746714 192.200242 301.545353 195.100583 301.545353 198.124364 
C 301.545353 201.148144 302.746714 204.048486 304.88485 206.186621 
C 307.022985 208.324757 309.923327 209.526118 312.947107 209.526118 
z
" clip-path="url(#p45b2288093)" style="fill: #ffffff; stroke: #000000"/>
    <path d="M 312.947107 291.998845 
C 315.970888 291.998845 318.871229 290.797484 321.009365 288.659349 
C 323.147501 286.521213 324.348862 283.620871 324.348862 280.597091 
C 324.348862 277.57331 323.147501 274.672969 321.009365 272.534833 
C 318.871229 270.396697 315.970888 269.195337 312.947107 269.195337 
C 309.923327 269.195337 307.022985 270.396697 304.88485 272.534833 
C 302.746714 274.672969 301.545353 277.57331 301.545353 280.597091 
C 301.545353 283.620871 302.746714 286.521213 304.88485 288.659349 
C 307.022985 290.797484 309.923327 291.998845 312.947107 291.998845 
z
" clip-path="url(#p45b2288093)" style="fill: #ffffff; stroke: #000000"/>
   </g>
   <g id="text_1">
    <!-- R -->
    <g transform="translate(150.527635 38.047812) scale(0.2 -0.2)">
     <defs>
      <path id="LMRoman17-Regular-52" d="M 4365 503 
C 4365 540 4365 585 4307 585 
C 4256 585 4250 547 4250 522 
C 4218 112 4032 -26 3834 -26 
C 3482 -26 3443 377 3405 768 
C 3386 903 3373 998 3360 1139 
C 3322 1459 3270 1927 2509 2157 
C 3117 2277 3629 2684 3629 3191 
C 3629 3787 2950 4326 2054 4326 
L 333 4326 
L 333 4160 
C 774 4160 845 4160 845 3873 
L 845 415 
C 845 128 774 128 333 128 
L 333 -26 
C 518 -26 851 -26 1050 -26 
C 1248 -26 1581 -26 1766 -26 
L 1766 128 
C 1325 128 1254 128 1254 417 
L 1254 2112 
L 2003 2112 
C 2368 2112 2573 1964 2662 1881 
C 2918 1632 2918 1459 2918 1024 
C 2918 595 2918 377 3110 160 
C 3354 -102 3680 -128 3821 -128 
C 4294 -128 4365 396 4365 503 
z
M 3142 3190 
C 3142 2372 2464 2214 1984 2214 
L 1254 2214 
L 1254 3913 
C 1254 4129 1267 4160 1523 4160 
L 1990 4160 
C 2522 4160 3142 3977 3142 3190 
z
" transform="scale(0.015625)"/>
     </defs>
     <use xlink:href="#LMRoman17-Regular-52" transform="scale(0.996264)"/>
    </g>
   </g>
   <g id="text_2">
    <!-- 6 -->
    <g transform="translate(100.857353 120.520539) scale(0.2 -0.2)">
     <defs>
      <path id="LMRoman17-Regular-36" d="M 2688 1283 
C 2688 2081 2170 2662 1517 2662 
C 1126 2662 838 2407 678 1960 
L 678 2176 
C 678 3690 1395 4032 1811 4032 
C 1946 4032 2272 4009 2400 3776 
C 2298 3776 2106 3776 2106 3553 
C 2106 3381 2246 3323 2336 3323 
C 2394 3323 2566 3348 2566 3560 
C 2566 3954 2246 4179 1805 4179 
C 1043 4179 243 3390 243 1984 
C 243 253 966 -128 1478 -128 
C 2099 -128 2688 427 2688 1283 
z
M 2253 1289 
C 2253 944 2253 690 2118 434 
C 1978 171 1773 25 1478 25 
C 691 25 691 1200 691 1436 
C 691 1896 909 2560 1504 2560 
C 1613 2560 1926 2560 2138 2120 
C 2253 1870 2253 1609 2253 1289 
z
" transform="scale(0.015625)"/>
     </defs>
     <use xlink:href="#LMRoman17-Regular-36" transform="scale(0.996264)"/>
    </g>
   </g>
   <g id="text_3">
    <!-- 0 -->
    <g transform="translate(31.683799 202.993267) scale(0.2 -0.2)">
     <defs>
      <path id="LMRoman17-Regular-30" d="M 2688 2025 
C 2688 2416 2682 3080 2413 3591 
C 2176 4039 1798 4198 1466 4198 
C 1158 4198 768 4058 525 3597 
C 269 3118 243 2524 243 2025 
C 243 1661 250 1106 448 619 
C 723 -39 1216 -128 1466 -128 
C 1760 -128 2208 -7 2470 600 
C 2662 1042 2688 1559 2688 2025 
z
M 2278 2096 
C 2278 1680 2278 1169 2202 792 
C 2067 95 1690 -26 1466 -26 
C 1056 -26 813 325 723 812 
C 653 1188 653 1738 653 2096 
C 653 2588 653 2997 736 3387 
C 858 3929 1216 4096 1466 4096 
C 1728 4096 2067 3923 2189 3400 
C 2272 3036 2278 2607 2278 2096 
z
" transform="scale(0.015625)"/>
     </defs>
     <use xlink:href="#LMRoman17-Regular-30" transform="scale(0.996264)"/>
    </g>
   </g>
   <g id="text_4">
    <!-- 3 -->
    <g transform="translate(100.857353 202.993267) scale(0.2 -0.2)">
     <defs>
      <path id="LMRoman17-Regular-33" d="M 2720 1085 
C 2720 1707 2208 2157 1600 2227 
C 2086 2328 2554 2756 2554 3329 
C 2554 3820 2048 4179 1472 4179 
C 890 4179 378 3829 378 3329 
C 378 3110 544 3072 627 3072 
C 762 3072 877 3155 877 3321 
C 877 3486 762 3569 627 3569 
C 602 3569 570 3569 544 3557 
C 730 3959 1235 4032 1459 4032 
C 1683 4032 2106 3925 2106 3320 
C 2106 3143 2080 2828 1862 2550 
C 1670 2304 1453 2304 1242 2284 
C 1210 2284 1062 2269 1037 2269 
C 992 2263 966 2257 966 2208 
C 966 2163 973 2157 1101 2157 
L 1414 2157 
C 1984 2157 2234 1662 2234 1090 
C 2234 320 1824 25 1453 25 
C 1114 25 563 194 390 693 
C 422 680 454 680 486 680 
C 640 680 755 782 755 948 
C 755 1133 614 1216 486 1216 
C 378 1216 211 1165 211 926 
C 211 335 787 -128 1466 -128 
C 2176 -128 2720 430 2720 1085 
z
" transform="scale(0.015625)"/>
     </defs>
     <use xlink:href="#LMRoman17-Regular-33" transform="scale(0.996264)"/>
    </g>
   </g>
   <g id="text_5">
    <!-- 8 -->
    <g transform="translate(204.617684 120.520539) scale(0.2 -0.2)">
     <defs>
      <path id="LMRoman17-Regular-38" d="M 2720 1011 
C 2720 1590 2330 1858 2074 2029 
C 1984 2092 1933 2124 1741 2264 
C 2144 2468 2554 2773 2554 3263 
C 2554 3842 1990 4179 1472 4179 
C 890 4179 378 3759 378 3180 
C 378 3021 416 2747 666 2505 
C 730 2442 998 2251 1171 2130 
C 883 1983 211 1634 211 934 
C 211 279 838 -128 1459 -128 
C 2144 -128 2720 362 2720 1011 
z
M 2336 3262 
C 2336 2669 1670 2331 1638 2331 
C 1638 2331 1626 2331 1574 2370 
L 902 2822 
C 851 2854 595 3051 595 3351 
C 595 3739 998 4032 1459 4032 
C 1965 4032 2336 3676 2336 3262 
z
M 2483 851 
C 2483 381 2010 25 1472 25 
C 890 25 448 438 448 940 
C 448 1443 838 1862 1280 2060 
L 2080 1519 
C 2176 1449 2483 1240 2483 851 
z
" transform="scale(0.015625)"/>
     </defs>
     <use xlink:href="#LMRoman17-Regular-38" transform="scale(0.996264)"/>
    </g>
   </g>
   <g id="text_6">
    <!-- 4 -->
    <g transform="translate(170.030907 202.993267) scale(0.2 -0.2)">
     <defs>
      <path id="LMRoman17-Regular-34" d="M 2803 1114 
L 2803 1280 
L 2150 1280 
L 2150 4154 
C 2150 4288 2144 4288 2029 4288 
L 128 1280 
L 128 1114 
L 1779 1114 
L 1779 487 
C 1779 255 1766 192 1318 192 
L 1197 192 
L 1197 32 
C 1402 32 1747 32 1965 32 
C 2182 32 2528 32 2733 32 
L 2733 192 
L 2611 192 
C 2163 192 2150 255 2150 487 
L 2150 1114 
L 2803 1114 
z
M 1798 1280 
L 256 1280 
L 1798 3734 
L 1798 1280 
z
" transform="scale(0.015625)"/>
     </defs>
     <use xlink:href="#LMRoman17-Regular-34" transform="scale(0.996264)"/>
    </g>
   </g>
   <g id="text_7">
    <!-- 1 -->
    <g transform="translate(170.030907 285.465994) scale(0.2 -0.2)">
     <defs>
      <path id="LMRoman17-Regular-31" d="M 2458 0 
L 2458 160 
L 2266 160 
C 1715 160 1702 230 1702 458 
L 1702 4058 
C 1702 4192 1696 4192 1606 4192 
C 1357 3916 979 3827 621 3827 
C 602 3827 570 3827 563 3808 
C 557 3795 557 3782 557 3648 
C 755 3648 1088 3686 1344 3839 
L 1344 461 
C 1344 236 1331 160 781 160 
L 589 160 
L 589 0 
L 1523 0 
L 2458 0 
z
" transform="scale(0.015625)"/>
     </defs>
     <use xlink:href="#LMRoman17-Regular-31" transform="scale(0.996264)"/>
    </g>
   </g>
   <g id="text_8">
    <!-- 5 -->
    <g transform="translate(239.20446 202.993267) scale(0.2 -0.2)">
     <defs>
      <path id="LMRoman17-Regular-35" d="M 2669 1264 
C 2669 2030 2170 2624 1549 2624 
C 1222 2624 947 2503 730 2274 
L 730 3692 
C 794 3666 1056 3584 1325 3584 
C 1920 3584 2246 3911 2432 4100 
C 2432 4157 2432 4192 2394 4192 
C 2394 4192 2374 4192 2323 4163 
C 2099 4058 1837 3973 1517 3973 
C 1325 3973 1037 3999 723 4139 
C 653 4171 634 4171 634 4171 
C 602 4171 595 4164 595 4037 
L 595 2203 
C 595 2089 595 2057 659 2057 
C 691 2057 704 2070 736 2114 
C 941 2401 1222 2522 1542 2522 
C 1766 2522 2246 2382 2246 1289 
C 2246 1085 2246 715 2054 421 
C 1894 159 1645 25 1370 25 
C 947 25 518 320 403 814 
C 429 807 480 795 506 795 
C 589 795 749 840 749 1038 
C 749 1210 627 1280 506 1280 
C 358 1280 262 1190 262 1011 
C 262 454 704 -128 1382 -128 
C 2042 -128 2669 440 2669 1264 
z
" transform="scale(0.015625)"/>
     </defs>
     <use xlink:href="#LMRoman17-Regular-35" transform="scale(0.996264)"/>
    </g>
   </g>
   <g id="text_9">
    <!-- 7 -->
    <g transform="translate(308.378014 202.993267) scale(0.2 -0.2)">
     <defs>
      <path id="LMRoman17-Regular-37" d="M 2886 3941 
L 2886 4081 
L 1382 4081 
C 634 4081 621 4165 595 4288 
L 480 4288 
L 294 3094 
L 410 3094 
C 429 3215 474 3540 550 3661 
C 589 3712 1062 3712 1171 3712 
L 2579 3712 
L 1869 2661 
C 1395 1954 1069 999 1069 165 
C 1069 89 1069 -128 1299 -128 
C 1530 -128 1530 89 1530 171 
L 1530 465 
C 1530 1508 1709 2196 2003 2636 
L 2886 3941 
z
" transform="scale(0.015625)"/>
     </defs>
     <use xlink:href="#LMRoman17-Regular-37" transform="scale(0.996264)"/>
    </g>
   </g>
   <g id="text_10">
    <!-- 2 -->
    <g transform="translate(308.378014 285.465994) scale(0.2 -0.2)">
     <defs>
      <path id="LMRoman17-Regular-32" d="M 2669 989 
L 2554 989 
C 2490 536 2438 459 2413 420 
C 2381 369 1920 369 1830 369 
L 602 369 
L 1824 1597 
C 2214 1967 2669 2402 2669 3035 
C 2669 3790 2067 4224 1395 4224 
C 691 4224 262 3604 262 3030 
C 262 2780 448 2748 525 2748 
C 589 2748 781 2787 781 3010 
C 781 3207 614 3264 525 3264 
C 486 3264 448 3258 422 3245 
C 544 3790 915 4058 1306 4058 
C 1862 4058 2227 3617 2227 3035 
C 2227 2479 1901 2000 1536 1584 
L 262 146 
L 262 0 
L 2515 0 
L 2669 989 
z
" transform="scale(0.015625)"/>
     </defs>
     <use xlink:href="#LMRoman17-Regular-32" transform="scale(0.996264)"/>
    </g>
   </g>
  </g>
 </g>
 <defs>
  <clipPath id="p45b2288093">
   <rect x="7.2" y="7.2" width="334.8" height="299.376"/>
  </clipPath>
 </defs>
</svg>
