<?xml version="1.0" encoding="utf-8" standalone="no"?>
<!DOCTYPE svg PUBLIC "-//W3C//DTD SVG 1.1//EN"
  "http://www.w3.org/Graphics/SVG/1.1/DTD/svg11.dtd">
<svg xmlns:xlink="http://www.w3.org/1999/xlink" width="349.2pt" height="169.632pt" viewBox="0 0 349.2 169.632" xmlns="http://www.w3.org/2000/svg" version="1.1">
 <metadata>
  <rdf:RDF xmlns:dc="http://purl.org/dc/elements/1.1/" xmlns:cc="http://creativecommons.org/ns#" xmlns:rdf="http://www.w3.org/1999/02/22-rdf-syntax-ns#">
   <cc:Work>
    <dc:type rdf:resource="http://purl.org/dc/dcmitype/StillImage"/>
    <dc:date>2023-10-16T19:12:17.055990</dc:date>
    <dc:format>image/svg+xml</dc:format>
    <dc:creator>
     <cc:Agent>
      <dc:title>Matplotlib v3.7.2, https://matplotlib.org/</dc:title>
     </cc:Agent>
    </dc:creator>
   </cc:Work>
  </rdf:RDF>
 </metadata>
 <defs>
  <style type="text/css">*{stroke-linejoin: round; stroke-linecap: butt}</style>
 </defs>
 <g id="figure_1">
  <g id="patch_1">
   <path d="M 0 169.632 
L 349.2 169.632 
L 349.2 0 
L 0 0 
z
" style="fill: #ffffff"/>
  </g>
  <g id="axes_1">
   <g id="patch_2">
    <path d="M 166.238292 28.424456 
Q 105.42565 84.816739 45.43281 140.448809 
" clip-path="url(#pde79b18c7b)" style="fill: none; stroke: #000000; stroke-linecap: round"/>
    <path d="M 49.725735 139.195497 
L 45.43281 140.448809 
L 47.005915 136.262481 
z
" clip-path="url(#pde79b18c7b)" style="stroke: #000000; stroke-linecap: round"/>
   </g>
   <g id="patch_3">
    <path d="M 167.429429 29.536352 
Q 122.720409 84.81529 78.714468 139.22493 
" clip-path="url(#pde79b18c7b)" style="fill: none; stroke: #000000; stroke-linecap: round"/>
    <path d="M 82.784929 137.37254 
L 78.714468 139.22493 
L 79.674832 134.857127 
z
" clip-path="url(#pde79b18c7b)" style="stroke: #000000; stroke-linecap: round"/>
   </g>
   <g id="patch_4">
    <path d="M 169.189483 30.705018 
Q 140.01373 84.815061 111.368594 137.941008 
" clip-path="url(#pde79b18c7b)" style="fill: none; stroke: #000000; stroke-linecap: round"/>
    <path d="M 115.027393 135.369396 
L 111.368594 137.941008 
L 111.506584 133.471001 
z
" clip-path="url(#pde79b18c7b)" style="stroke: #000000; stroke-linecap: round"/>
   </g>
   <g id="patch_5">
    <path d="M 171.632976 31.67597 
Q 157.306723 84.815586 143.271497 136.87571 
" clip-path="url(#pde79b18c7b)" style="fill: none; stroke: #000000; stroke-linecap: round"/>
    <path d="M 146.243762 133.534208 
L 143.271497 136.87571 
L 142.381654 132.492997 
z
" clip-path="url(#pde79b18c7b)" style="stroke: #000000; stroke-linecap: round"/>
   </g>
   <g id="patch_6">
    <path d="M 174.6 32.075313 
Q 174.6 84.816403 174.6 136.43946 
" clip-path="url(#pde79b18c7b)" style="fill: none; stroke: #000000; stroke-linecap: round"/>
    <path d="M 176.6 132.43946 
L 174.6 136.43946 
L 172.6 132.43946 
z
" clip-path="url(#pde79b18c7b)" style="stroke: #000000; stroke-linecap: round"/>
   </g>
   <g id="patch_7">
    <path d="M 177.567024 31.67597 
Q 191.893277 84.815586 205.928503 136.87571 
" clip-path="url(#pde79b18c7b)" style="fill: none; stroke: #000000; stroke-linecap: round"/>
    <path d="M 206.818346 132.492997 
L 205.928503 136.87571 
L 202.956238 133.534208 
z
" clip-path="url(#pde79b18c7b)" style="stroke: #000000; stroke-linecap: round"/>
   </g>
   <g id="patch_8">
    <path d="M 180.010517 30.705018 
Q 209.18627 84.815061 237.831406 137.941008 
" clip-path="url(#pde79b18c7b)" style="fill: none; stroke: #000000; stroke-linecap: round"/>
    <path d="M 237.693416 133.471001 
L 237.831406 137.941008 
L 234.172607 135.369396 
z
" clip-path="url(#pde79b18c7b)" style="stroke: #000000; stroke-linecap: round"/>
   </g>
   <g id="patch_9">
    <path d="M 181.770571 29.536352 
Q 226.479591 84.81529 270.485532 139.22493 
" clip-path="url(#pde79b18c7b)" style="fill: none; stroke: #000000; stroke-linecap: round"/>
    <path d="M 269.525168 134.857127 
L 270.485532 139.22493 
L 266.415071 137.37254 
z
" clip-path="url(#pde79b18c7b)" style="stroke: #000000; stroke-linecap: round"/>
   </g>
   <g id="patch_10">
    <path d="M 182.961708 28.424456 
Q 243.77435 84.816739 303.76719 140.448809 
" clip-path="url(#pde79b18c7b)" style="fill: none; stroke: #000000; stroke-linecap: round"/>
    <path d="M 302.194085 136.262481 
L 303.76719 140.448809 
L 299.474265 139.195497 
z
" clip-path="url(#pde79b18c7b)" style="stroke: #000000; stroke-linecap: round"/>
   </g>
   <g id="PathCollection_1">
    <path d="M 174.6 32.0723 
C 177.623781 32.0723 180.524122 30.870939 182.662258 28.732803 
C 184.800393 26.594667 186.001754 23.694326 186.001754 20.670545 
C 186.001754 17.646765 184.800393 14.746423 182.662258 12.608288 
C 180.524122 10.470152 177.623781 9.268791 174.6 9.268791 
C 171.576219 9.268791 168.675878 10.470152 166.537742 12.608288 
C 164.399607 14.746423 163.198246 17.646765 163.198246 20.670545 
C 163.198246 23.694326 164.399607 26.594667 166.537742 28.732803 
C 168.675878 30.870939 171.576219 32.0723 174.6 32.0723 
z
" clip-path="url(#pde79b18c7b)" style="fill: #ffffff; stroke: #000000"/>
    <path d="M 36.252893 160.363209 
C 39.276673 160.363209 42.177015 159.161848 44.31515 157.023712 
C 46.453286 154.885577 47.654647 151.985235 47.654647 148.961455 
C 47.654647 145.937674 46.453286 143.037333 44.31515 140.899197 
C 42.177015 138.761061 39.276673 137.5597 36.252893 137.5597 
C 33.229112 137.5597 30.328771 138.761061 28.190635 140.899197 
C 26.052499 143.037333 24.851138 145.937674 24.851138 148.961455 
C 24.851138 151.985235 26.052499 154.885577 28.190635 157.023712 
C 30.328771 159.161848 33.229112 160.363209 36.252893 160.363209 
z
" clip-path="url(#pde79b18c7b)" style="fill: #ffffff; stroke: #000000"/>
    <path d="M 70.839669 160.363209 
C 73.86345 160.363209 76.763791 159.161848 78.901927 157.023712 
C 81.040063 154.885577 82.241424 151.985235 82.241424 148.961455 
C 82.241424 145.937674 81.040063 143.037333 78.901927 140.899197 
C 76.763791 138.761061 73.86345 137.5597 70.839669 137.5597 
C 67.815889 137.5597 64.915547 138.761061 62.777412 140.899197 
C 60.639276 143.037333 59.437915 145.937674 59.437915 148.961455 
C 59.437915 151.985235 60.639276 154.885577 62.777412 157.023712 
C 64.915547 159.161848 67.815889 160.363209 70.839669 160.363209 
z
" clip-path="url(#pde79b18c7b)" style="fill: #ffffff; stroke: #000000"/>
    <path d="M 105.426446 160.363209 
C 108.450227 160.363209 111.350568 159.161848 113.488704 157.023712 
C 115.62684 154.885577 116.828201 151.985235 116.828201 148.961455 
C 116.828201 145.937674 115.62684 143.037333 113.488704 140.899197 
C 111.350568 138.761061 108.450227 137.5597 105.426446 137.5597 
C 102.402666 137.5597 99.502324 138.761061 97.364189 140.899197 
C 95.226053 143.037333 94.024692 145.937674 94.024692 148.961455 
C 94.024692 151.985235 95.226053 154.885577 97.364189 157.023712 
C 99.502324 159.161848 102.402666 160.363209 105.426446 160.363209 
z
" clip-path="url(#pde79b18c7b)" style="fill: #ffffff; stroke: #000000"/>
    <path d="M 140.013223 160.363209 
C 143.037004 160.363209 145.937345 159.161848 148.075481 157.023712 
C 150.213617 154.885577 151.414977 151.985235 151.414977 148.961455 
C 151.414977 145.937674 150.213617 143.037333 148.075481 140.899197 
C 145.937345 138.761061 143.037004 137.5597 140.013223 137.5597 
C 136.989443 137.5597 134.089101 138.761061 131.950965 140.899197 
C 129.81283 143.037333 128.611469 145.937674 128.611469 148.961455 
C 128.611469 151.985235 129.81283 154.885577 131.950965 157.023712 
C 134.089101 159.161848 136.989443 160.363209 140.013223 160.363209 
z
" clip-path="url(#pde79b18c7b)" style="fill: #ffffff; stroke: #000000"/>
    <path d="M 174.6 160.363209 
C 177.623781 160.363209 180.524122 159.161848 182.662258 157.023712 
C 184.800393 154.885577 186.001754 151.985235 186.001754 148.961455 
C 186.001754 145.937674 184.800393 143.037333 182.662258 140.899197 
C 180.524122 138.761061 177.623781 137.5597 174.6 137.5597 
C 171.576219 137.5597 168.675878 138.761061 166.537742 140.899197 
C 164.399607 143.037333 163.198246 145.937674 163.198246 148.961455 
C 163.198246 151.985235 164.399607 154.885577 166.537742 157.023712 
C 168.675878 159.161848 171.576219 160.363209 174.6 160.363209 
z
" clip-path="url(#pde79b18c7b)" style="fill: #ffffff; stroke: #000000"/>
    <path d="M 209.186777 160.363209 
C 212.210557 160.363209 215.110899 159.161848 217.249035 157.023712 
C 219.38717 154.885577 220.588531 151.985235 220.588531 148.961455 
C 220.588531 145.937674 219.38717 143.037333 217.249035 140.899197 
C 215.110899 138.761061 212.210557 137.5597 209.186777 137.5597 
C 206.162996 137.5597 203.262655 138.761061 201.124519 140.899197 
C 198.986383 143.037333 197.785023 145.937674 197.785023 148.961455 
C 197.785023 151.985235 198.986383 154.885577 201.124519 157.023712 
C 203.262655 159.161848 206.162996 160.363209 209.186777 160.363209 
z
" clip-path="url(#pde79b18c7b)" style="fill: #ffffff; stroke: #000000"/>
    <path d="M 243.773554 160.363209 
C 246.797334 160.363209 249.697676 159.161848 251.835811 157.023712 
C 253.973947 154.885577 255.175308 151.985235 255.175308 148.961455 
C 255.175308 145.937674 253.973947 143.037333 251.835811 140.899197 
C 249.697676 138.761061 246.797334 137.5597 243.773554 137.5597 
C 240.749773 137.5597 237.849432 138.761061 235.711296 140.899197 
C 233.57316 143.037333 232.371799 145.937674 232.371799 148.961455 
C 232.371799 151.985235 233.57316 154.885577 235.711296 157.023712 
C 237.849432 159.161848 240.749773 160.363209 243.773554 160.363209 
z
" clip-path="url(#pde79b18c7b)" style="fill: #ffffff; stroke: #000000"/>
    <path d="M 278.360331 160.363209 
C 281.384111 160.363209 284.284453 159.161848 286.422588 157.023712 
C 288.560724 154.885577 289.762085 151.985235 289.762085 148.961455 
C 289.762085 145.937674 288.560724 143.037333 286.422588 140.899197 
C 284.284453 138.761061 281.384111 137.5597 278.360331 137.5597 
C 275.33655 137.5597 272.436209 138.761061 270.298073 140.899197 
C 268.159937 143.037333 266.958576 145.937674 266.958576 148.961455 
C 266.958576 151.985235 268.159937 154.885577 270.298073 157.023712 
C 272.436209 159.161848 275.33655 160.363209 278.360331 160.363209 
z
" clip-path="url(#pde79b18c7b)" style="fill: #ffffff; stroke: #000000"/>
    <path d="M 312.947107 160.363209 
C 315.970888 160.363209 318.871229 159.161848 321.009365 157.023712 
C 323.147501 154.885577 324.348862 151.985235 324.348862 148.961455 
C 324.348862 145.937674 323.147501 143.037333 321.009365 140.899197 
C 318.871229 138.761061 315.970888 137.5597 312.947107 137.5597 
C 309.923327 137.5597 307.022985 138.761061 304.88485 140.899197 
C 302.746714 143.037333 301.545353 145.937674 301.545353 148.961455 
C 301.545353 151.985235 302.746714 154.885577 304.88485 157.023712 
C 307.022985 159.161848 309.923327 160.363209 312.947107 160.363209 
z
" clip-path="url(#pde79b18c7b)" style="fill: #ffffff; stroke: #000000"/>
   </g>
   <g id="text_1">
    <!-- R -->
    <g transform="translate(167.821024 25.539448) scale(0.2 -0.2)">
     <defs>
      <path id="LMRoman17-Regular-52" d="M 4365 503 
C 4365 540 4365 585 4307 585 
C 4256 585 4250 547 4250 522 
C 4218 112 4032 -26 3834 -26 
C 3482 -26 3443 377 3405 768 
C 3386 903 3373 998 3360 1139 
C 3322 1459 3270 1927 2509 2157 
C 3117 2277 3629 2684 3629 3191 
C 3629 3787 2950 4326 2054 4326 
L 333 4326 
L 333 4160 
C 774 4160 845 4160 845 3873 
L 845 415 
C 845 128 774 128 333 128 
L 333 -26 
C 518 -26 851 -26 1050 -26 
C 1248 -26 1581 -26 1766 -26 
L 1766 128 
C 1325 128 1254 128 1254 417 
L 1254 2112 
L 2003 2112 
C 2368 2112 2573 1964 2662 1881 
C 2918 1632 2918 1459 2918 1024 
C 2918 595 2918 377 3110 160 
C 3354 -102 3680 -128 3821 -128 
C 4294 -128 4365 396 4365 503 
z
M 3142 3190 
C 3142 2372 2464 2214 1984 2214 
L 1254 2214 
L 1254 3913 
C 1254 4129 1267 4160 1523 4160 
L 1990 4160 
C 2522 4160 3142 3977 3142 3190 
z
" transform="scale(0.015625)"/>
     </defs>
     <use xlink:href="#LMRoman17-Regular-52" transform="scale(0.996264)"/>
    </g>
   </g>
   <g id="text_2">
    <!-- 0 -->
    <g transform="translate(31.683799 153.830357) scale(0.2 -0.2)">
     <defs>
      <path id="LMRoman17-Regular-30" d="M 2688 2025 
C 2688 2416 2682 3080 2413 3591 
C 2176 4039 1798 4198 1466 4198 
C 1158 4198 768 4058 525 3597 
C 269 3118 243 2524 243 2025 
C 243 1661 250 1106 448 619 
C 723 -39 1216 -128 1466 -128 
C 1760 -128 2208 -7 2470 600 
C 2662 1042 2688 1559 2688 2025 
z
M 2278 2096 
C 2278 1680 2278 1169 2202 792 
C 2067 95 1690 -26 1466 -26 
C 1056 -26 813 325 723 812 
C 653 1188 653 1738 653 2096 
C 653 2588 653 2997 736 3387 
C 858 3929 1216 4096 1466 4096 
C 1728 4096 2067 3923 2189 3400 
C 2272 3036 2278 2607 2278 2096 
z
" transform="scale(0.015625)"/>
     </defs>
     <use xlink:href="#LMRoman17-Regular-30" transform="scale(0.996264)"/>
    </g>
   </g>
   <g id="text_3">
    <!-- 1 -->
    <g transform="translate(66.270576 153.830357) scale(0.2 -0.2)">
     <defs>
      <path id="LMRoman17-Regular-31" d="M 2458 0 
L 2458 160 
L 2266 160 
C 1715 160 1702 230 1702 458 
L 1702 4058 
C 1702 4192 1696 4192 1606 4192 
C 1357 3916 979 3827 621 3827 
C 602 3827 570 3827 563 3808 
C 557 3795 557 3782 557 3648 
C 755 3648 1088 3686 1344 3839 
L 1344 461 
C 1344 236 1331 160 781 160 
L 589 160 
L 589 0 
L 1523 0 
L 2458 0 
z
" transform="scale(0.015625)"/>
     </defs>
     <use xlink:href="#LMRoman17-Regular-31" transform="scale(0.996264)"/>
    </g>
   </g>
   <g id="text_4">
    <!-- 2 -->
    <g transform="translate(100.857353 153.830357) scale(0.2 -0.2)">
     <defs>
      <path id="LMRoman17-Regular-32" d="M 2669 989 
L 2554 989 
C 2490 536 2438 459 2413 420 
C 2381 369 1920 369 1830 369 
L 602 369 
L 1824 1597 
C 2214 1967 2669 2402 2669 3035 
C 2669 3790 2067 4224 1395 4224 
C 691 4224 262 3604 262 3030 
C 262 2780 448 2748 525 2748 
C 589 2748 781 2787 781 3010 
C 781 3207 614 3264 525 3264 
C 486 3264 448 3258 422 3245 
C 544 3790 915 4058 1306 4058 
C 1862 4058 2227 3617 2227 3035 
C 2227 2479 1901 2000 1536 1584 
L 262 146 
L 262 0 
L 2515 0 
L 2669 989 
z
" transform="scale(0.015625)"/>
     </defs>
     <use xlink:href="#LMRoman17-Regular-32" transform="scale(0.996264)"/>
    </g>
   </g>
   <g id="text_5">
    <!-- 3 -->
    <g transform="translate(135.44413 153.830357) scale(0.2 -0.2)">
     <defs>
      <path id="LMRoman17-Regular-33" d="M 2720 1085 
C 2720 1707 2208 2157 1600 2227 
C 2086 2328 2554 2756 2554 3329 
C 2554 3820 2048 4179 1472 4179 
C 890 4179 378 3829 378 3329 
C 378 3110 544 3072 627 3072 
C 762 3072 877 3155 877 3321 
C 877 3486 762 3569 627 3569 
C 602 3569 570 3569 544 3557 
C 730 3959 1235 4032 1459 4032 
C 1683 4032 2106 3925 2106 3320 
C 2106 3143 2080 2828 1862 2550 
C 1670 2304 1453 2304 1242 2284 
C 1210 2284 1062 2269 1037 2269 
C 992 2263 966 2257 966 2208 
C 966 2163 973 2157 1101 2157 
L 1414 2157 
C 1984 2157 2234 1662 2234 1090 
C 2234 320 1824 25 1453 25 
C 1114 25 563 194 390 693 
C 422 680 454 680 486 680 
C 640 680 755 782 755 948 
C 755 1133 614 1216 486 1216 
C 378 1216 211 1165 211 926 
C 211 335 787 -128 1466 -128 
C 2176 -128 2720 430 2720 1085 
z
" transform="scale(0.015625)"/>
     </defs>
     <use xlink:href="#LMRoman17-Regular-33" transform="scale(0.996264)"/>
    </g>
   </g>
   <g id="text_6">
    <!-- 4 -->
    <g transform="translate(170.030907 153.830357) scale(0.2 -0.2)">
     <defs>
      <path id="LMRoman17-Regular-34" d="M 2803 1114 
L 2803 1280 
L 2150 1280 
L 2150 4154 
C 2150 4288 2144 4288 2029 4288 
L 128 1280 
L 128 1114 
L 1779 1114 
L 1779 487 
C 1779 255 1766 192 1318 192 
L 1197 192 
L 1197 32 
C 1402 32 1747 32 1965 32 
C 2182 32 2528 32 2733 32 
L 2733 192 
L 2611 192 
C 2163 192 2150 255 2150 487 
L 2150 1114 
L 2803 1114 
z
M 1798 1280 
L 256 1280 
L 1798 3734 
L 1798 1280 
z
" transform="scale(0.015625)"/>
     </defs>
     <use xlink:href="#LMRoman17-Regular-34" transform="scale(0.996264)"/>
    </g>
   </g>
   <g id="text_7">
    <!-- 5 -->
    <g transform="translate(204.617684 153.830357) scale(0.2 -0.2)">
     <defs>
      <path id="LMRoman17-Regular-35" d="M 2669 1264 
C 2669 2030 2170 2624 1549 2624 
C 1222 2624 947 2503 730 2274 
L 730 3692 
C 794 3666 1056 3584 1325 3584 
C 1920 3584 2246 3911 2432 4100 
C 2432 4157 2432 4192 2394 4192 
C 2394 4192 2374 4192 2323 4163 
C 2099 4058 1837 3973 1517 3973 
C 1325 3973 1037 3999 723 4139 
C 653 4171 634 4171 634 4171 
C 602 4171 595 4164 595 4037 
L 595 2203 
C 595 2089 595 2057 659 2057 
C 691 2057 704 2070 736 2114 
C 941 2401 1222 2522 1542 2522 
C 1766 2522 2246 2382 2246 1289 
C 2246 1085 2246 715 2054 421 
C 1894 159 1645 25 1370 25 
C 947 25 518 320 403 814 
C 429 807 480 795 506 795 
C 589 795 749 840 749 1038 
C 749 1210 627 1280 506 1280 
C 358 1280 262 1190 262 1011 
C 262 454 704 -128 1382 -128 
C 2042 -128 2669 440 2669 1264 
z
" transform="scale(0.015625)"/>
     </defs>
     <use xlink:href="#LMRoman17-Regular-35" transform="scale(0.996264)"/>
    </g>
   </g>
   <g id="text_8">
    <!-- 6 -->
    <g transform="translate(239.20446 153.830357) scale(0.2 -0.2)">
     <defs>
      <path id="LMRoman17-Regular-36" d="M 2688 1283 
C 2688 2081 2170 2662 1517 2662 
C 1126 2662 838 2407 678 1960 
L 678 2176 
C 678 3690 1395 4032 1811 4032 
C 1946 4032 2272 4009 2400 3776 
C 2298 3776 2106 3776 2106 3553 
C 2106 3381 2246 3323 2336 3323 
C 2394 3323 2566 3348 2566 3560 
C 2566 3954 2246 4179 1805 4179 
C 1043 4179 243 3390 243 1984 
C 243 253 966 -128 1478 -128 
C 2099 -128 2688 427 2688 1283 
z
M 2253 1289 
C 2253 944 2253 690 2118 434 
C 1978 171 1773 25 1478 25 
C 691 25 691 1200 691 1436 
C 691 1896 909 2560 1504 2560 
C 1613 2560 1926 2560 2138 2120 
C 2253 1870 2253 1609 2253 1289 
z
" transform="scale(0.015625)"/>
     </defs>
     <use xlink:href="#LMRoman17-Regular-36" transform="scale(0.996264)"/>
    </g>
   </g>
   <g id="text_9">
    <!-- 7 -->
    <g transform="translate(273.791237 153.830357) scale(0.2 -0.2)">
     <defs>
      <path id="LMRoman17-Regular-37" d="M 2886 3941 
L 2886 4081 
L 1382 4081 
C 634 4081 621 4165 595 4288 
L 480 4288 
L 294 3094 
L 410 3094 
C 429 3215 474 3540 550 3661 
C 589 3712 1062 3712 1171 3712 
L 2579 3712 
L 1869 2661 
C 1395 1954 1069 999 1069 165 
C 1069 89 1069 -128 1299 -128 
C 1530 -128 1530 89 1530 171 
L 1530 465 
C 1530 1508 1709 2196 2003 2636 
L 2886 3941 
z
" transform="scale(0.015625)"/>
     </defs>
     <use xlink:href="#LMRoman17-Regular-37" transform="scale(0.996264)"/>
    </g>
   </g>
   <g id="text_10">
    <!-- 8 -->
    <g transform="translate(308.378014 153.830357) scale(0.2 -0.2)">
     <defs>
      <path id="LMRoman17-Regular-38" d="M 2720 1011 
C 2720 1590 2330 1858 2074 2029 
C 1984 2092 1933 2124 1741 2264 
C 2144 2468 2554 2773 2554 3263 
C 2554 3842 1990 4179 1472 4179 
C 890 4179 378 3759 378 3180 
C 378 3021 416 2747 666 2505 
C 730 2442 998 2251 1171 2130 
C 883 1983 211 1634 211 934 
C 211 279 838 -128 1459 -128 
C 2144 -128 2720 362 2720 1011 
z
M 2336 3262 
C 2336 2669 1670 2331 1638 2331 
C 1638 2331 1626 2331 1574 2370 
L 902 2822 
C 851 2854 595 3051 595 3351 
C 595 3739 998 4032 1459 4032 
C 1965 4032 2336 3676 2336 3262 
z
M 2483 851 
C 2483 381 2010 25 1472 25 
C 890 25 448 438 448 940 
C 448 1443 838 1862 1280 2060 
L 2080 1519 
C 2176 1449 2483 1240 2483 851 
z
" transform="scale(0.015625)"/>
     </defs>
     <use xlink:href="#LMRoman17-Regular-38" transform="scale(0.996264)"/>
    </g>
   </g>
  </g>
 </g>
 <defs>
  <clipPath id="pde79b18c7b">
   <rect x="7.2" y="7.2" width="334.8" height="155.232"/>
  </clipPath>
 </defs>
</svg>
